 http://imageshack.us/m/198/6995/13131x.jpg

Country.......: USA
Genre.........: Horror, Thriller
Date release..: 07.10.2010 [World]
Director......: Wes Craven
Writers.......: Wes Craven
Duration......: 107 min.
More..........: http://www.imdb.com/title/tt0872230
Trailer.......: http://www.imdb.com/video/imdb/vi2883388953
Trailer.......:

Pilot :
A serial killer returns to his hometown to stalk seven children who share the same birthday as the date he was allegedly put to rest. 

Cats :
Max Thieriot   	 ...  	Bug
John Magaro 	... 	Alex
Denzel Whitaker 	... 	Jerome
Zena Grey 	... 	Penelope
Nick Lashaway 	... 	Brandon
Paulina Olszynski 	... 	Brittany
Jeremy Chu 	... 	Jay
Emily Meade 	... 	Fang
Raul Esparza 	... 	Abel
Jessica Hecht 	... 	May
Frank Grillo 	... 	Paterson
Danai Gurira 	... 	Jeanne Baptiste
Harris Yulin 	... 	Dr. Blake
Shareeka Epps 	... 	Chandelle
Elena Hurst 	... 	Maria 

Data Technical :
!!! SAMPLE !!!
Audio.....: English
Subtitles.: English .srt, Spanish .srt, Swedish .srt, Italian .srt, French .srt, Dutch .srt, Polish .txt
Format                           : AVI
Format/Info                      : Audio Video Interleave
File size                        : 702 MiB
Duration                         : 1h 47mn
Overall bit rate                 : 914 Kbps
Writing application              : VirtualDubMod 1.5.4.1 (build 2178/release)
Writing library                  : VirtualDubMod build 2178/release
Video
ID                               : 0
Format                           : MPEG-4 Visual
Format profile                   : Advanced Simple@L5
Format settings, BVOP            : Yes
Format settings, QPel            : No
Format settings, GMC             : No warppoints
Format settings, Matrix          : Default (H.263)
Muxing mode                      : Packed bitstream
Codec ID                         : DX50
Codec ID/Hint                    : DivX 5
Duration                         : 1h 47mn
Bit rate                         : 793 Kbps
Width                            : 640 pixels
Height                           : 272 pixels
Display aspect ratio             : 2.35:1
Frame rate                       : 23.976 fps
Color space                      : YUV
Chroma subsampling               : 4:2:0
Bit depth                        : 8 bits
Scan type                        : Progressive
Bits/(Pixel*Frame)               : 0.190
Stream size                      : 608 MiB (87%)
Writing library                  : XviD 1.2.1 (UTC 2008-12-04)
Audio
ID                               : 1
Format                           : MPEG Audio
Format version                   : Version 1
Format profile                   : Layer 3
Mode                             : Joint stereo
Mode extension                   : MS Stereo
Codec ID                         : 55
Codec ID/Hint                    : MP3
Duration                         : 1h 47mn
Bit rate mode                    : Constant
Bit rate                         : 112 Kbps
Channel(s)                       : 2 channels
Sampling rate                    : 44.1 KHz
Video delay                      : 26ms
Stream size                      : 85.9 MiB (12%)
Alignment                        : Split accross interleaves
Interleave, duration             : 42 ms (1.00 video frame)
Interleave, preload duration     : 500 ms
Writing library                  : LAME3.92

Screen : 
http://imageshack.us/m/695/3241/mysoultotake2010s1.jpg 
http://imageshack.us/m/822/2168/mysoultotake2010s2.jpg 
http://imageshack.us/m/854/2047/mysoultotake2010s3.jpg 
http://imageshack.us/m/703/8519/mysoultotake2010s4.jpg 
http://imageshack.us/m/863/6981/mysoultotake2010s5.jpg